<?xml version="1.0" encoding="iso-8859-1"?>
<!-- Generator: Adobe Illustrator 19.0.0, SVG Export Plug-In . SVG Version: 6.00 Build 0)  -->
<svg version="1.1" id="Capa_1" xmlns="http://www.w3.org/2000/svg" xmlns:xlink="http://www.w3.org/1999/xlink" x="0px" y="0px"
	 viewBox="0 0 480 480" style="enable-background:new 0 0 480 480;" xml:space="preserve">
<g>
	<g>
		<path d="M337.678,202.48c-1.522-1.596-3.635-2.494-5.84-2.48h-49.44c-4.411-0.25-8.19,3.123-8.44,7.535
			c-0.06,1.054,0.09,2.109,0.44,3.105c0.807,1.682,1.295,3.5,1.44,5.36c0,8.837-7.163,16-16,16s-16-7.163-16-16
			c0.019-1.835,0.371-3.651,1.04-5.36c1.465-4.168-0.726-8.735-4.895-10.2c-0.996-0.35-2.051-0.5-3.105-0.44h-49.04v-46.24
			c-0.01-4.418-3.601-7.992-8.019-7.981c-1.974,0.005-3.876,0.739-5.341,2.061c-6.539,5.943-16.658,5.46-22.602-1.079
			s-5.46-16.658,1.079-22.602c2.976-2.705,6.861-4.19,10.882-4.159c3.938,0.03,7.726,1.511,10.64,4.16
			c3.28,2.96,8.339,2.701,11.299-0.579c1.322-1.465,2.056-3.367,2.061-5.341V48c0-4.418-3.582-8-8-8
			C91.472,40.18,19.983,111.959,20.163,200.325c0.122,60.176,33.998,115.194,87.675,142.395v58.72
			c-9.566,3.382-15.971,12.414-16,22.56c0.035,5.92,2.258,11.619,6.24,16c-3.982,4.381-6.205,10.08-6.24,16
			c0,13.255,10.745,24,24,24h128c13.255,0,24-10.745,24-24c-0.035-5.92-2.258-11.619-6.24-16c3.982-4.381,6.205-10.08,6.24-16
			c-0.029-10.146-6.434-19.178-16-22.56v-58.72c51.396-25.643,85.017-76.96,88-134.32
			C339.958,206.214,339.177,204.075,337.678,202.48z M243.837,464h-128c-4.418,0-8-3.582-8-8s3.582-8,8-8h128c4.418,0,8,3.582,8,8
			S248.256,464,243.837,464z M243.837,432h-128c-4.418,0-8-3.582-8-8s3.582-8,8-8h128c4.418,0,8,3.582,8,8S248.256,432,243.837,432z
			 M155.837,280h-8c-4.418,0-8-3.582-8-8s3.582-8,8-8s8,3.582,8,8V280z M171.837,400V296h16v104H171.837z M240.478,330.48
			c-2.836,1.312-4.648,4.155-4.64,7.28V400h-32V296h8c13.255,0,24-10.745,24-24s-10.745-24-24-24s-24,10.745-24,24v8h-16v-8
			c0-13.255-10.745-24-24-24s-24,10.745-24,24s10.745,24,24,24h8v104h-32v-62.24c0.008-3.125-1.804-5.968-4.64-7.28
			C47.018,297.089,15.574,211.507,48.965,139.327C71.345,90.952,118.615,58.895,171.837,56v48.8c-2.618-0.628-5.309-0.897-8-0.8
			c-17.673,0-32,14.327-32,32s14.327,32,32,32c2.702,0.019,5.393-0.331,8-1.04V208c0,4.418,3.582,8,8,8h48c0,17.673,14.327,32,32,32
			c17.673,0,32-14.327,32-32h31.04C317.351,265.956,286.095,309.381,240.478,330.48z M203.837,280v-8c0-4.418,3.582-8,8-8
			s8,3.582,8,8s-3.582,8-8,8H203.837z"/>
	</g>
</g>
<g>
	<g>
		<path d="M299.837,0c-4.418,0-8,3.582-8,8v57.04c-2.607-0.709-5.298-1.059-8-1.04c-17.673,0-32,14.327-32,32s14.327,32,32,32
			c2.702,0.019,5.393-0.331,8-1.04V168c0,4.418,3.582,8,8,8h48c0,17.673,14.327,32,32,32c17.673,0,32-14.327,32-32h40
			c4.255-0.372,7.628-3.745,8-8c0-2.56,0-5.12,0-8C459.837,71.634,388.203,0,299.837,0z M402.637,160
			c-4.411-0.25-8.19,3.123-8.44,7.535c-0.06,1.054,0.09,2.109,0.44,3.105c0.724,1.698,1.131,3.515,1.2,5.36c0,8.837-7.163,16-16,16
			s-16-7.163-16-16c0.019-1.835,0.371-3.651,1.04-5.36c1.465-4.168-0.726-8.735-4.895-10.2c-0.996-0.35-2.051-0.5-3.105-0.44h-49.04
			v-46.24c-0.01-4.418-3.601-7.992-8.019-7.981c-1.974,0.005-3.876,0.739-5.341,2.061c-6.627,5.845-16.738,5.21-22.583-1.417
			c-5.845-6.627-5.21-16.738,1.417-22.583c6.047-5.333,15.119-5.333,21.166,0c3.277,2.964,8.336,2.711,11.3-0.566
			c1.254-1.386,1.983-3.167,2.06-5.034V16c76.389,4.25,136.118,67.493,136,144H402.637z"/>
	</g>
</g>
<g>
</g>
<g>
</g>
<g>
</g>
<g>
</g>
<g>
</g>
<g>
</g>
<g>
</g>
<g>
</g>
<g>
</g>
<g>
</g>
<g>
</g>
<g>
</g>
<g>
</g>
<g>
</g>
<g>
</g>
</svg>
