<?xml version="1.0" encoding="iso-8859-1"?>
<!-- Generator: Adobe Illustrator 19.0.0, SVG Export Plug-In . SVG Version: 6.00 Build 0)  -->
<svg version="1.1" id="Capa_1" xmlns="http://www.w3.org/2000/svg" xmlns:xlink="http://www.w3.org/1999/xlink" x="0px" y="0px"
	 viewBox="0 0 480 480" style="enable-background:new 0 0 480 480;" xml:space="preserve">
<g>
	<g>
		<path d="M472,0H72C32.235,0,0,32.235,0,72v336c0,39.764,32.235,72,72,72h400c4.418,0,8-3.582,8-8V8C480,3.582,476.418,0,472,0z
			 M63.76,463.28C36.358,459.204,16.055,435.704,16,408V117.2c1.545,1.934,3.201,3.777,4.96,5.52l0.96,0.88
			c1.44,1.36,2.96,2.8,4.56,4.08l2.08,1.6l4,2.8l2.48,1.52l4,2.24l2.72,1.28l4.16,1.76l2.96,1.04c1.466,0.537,2.962,0.991,4.48,1.36
			c0.96,0,1.92,0.56,2.88,0.72c0.96,0.16,3.36,0.64,5.12,0.88l2.4,0.4V463.28z M464,464h-39.28
			c3.417-20.109,19.171-35.863,39.28-39.28V464z M464,408.56c-28.961,3.673-51.767,26.478-55.44,55.44H80V144h328.56
			c3.673,28.961,26.479,51.767,55.44,55.44V408.56z M464,183.28c-20.109-3.417-35.863-19.171-39.28-39.28H464V183.28z M464,128H72
			c-30.928,0-56-25.072-56-56s25.072-56,56-56h392V128z"/>
	</g>
</g>
<g>
	<g>
		<rect x="112" y="96" width="224" height="16"/>
	</g>
</g>
<g>
	<g>
		<rect x="288" y="64" width="144" height="16"/>
	</g>
</g>
<g>
	<g>
		<rect x="120" y="32" width="256" height="16"/>
	</g>
</g>
<g>
	<g>
		<rect x="352" y="96" width="16" height="16"/>
	</g>
</g>
<g>
	<g>
		<rect x="80" y="64" width="48" height="16"/>
	</g>
</g>
<g>
	<g>
		<rect x="384" y="96" width="16" height="16"/>
	</g>
</g>
<g>
	<g>
		<rect x="416" y="96" width="16" height="16"/>
	</g>
</g>
<g>
	<g>
		<rect x="392" y="32" width="16" height="16"/>
	</g>
</g>
<g>
	<g>
		<rect x="144" y="64" width="112" height="16"/>
	</g>
</g>
<g>
	<g>
		<path d="M328,296c-3.012,0.009-5.764,1.71-7.12,4.4L306.96,328L280,206.24c-0.838-3.721-4.187-6.333-8-6.24
			c-4.015-0.04-7.438,2.904-8,6.88l-18.56,136.56L224,261.92c-0.965-3.594-4.281-6.047-8-5.92c-3.585-0.187-6.856,2.037-8,5.44
			L194.24,304H120v16h80c3.439,0.009,6.499-2.182,7.6-5.44l7.52-22.72L240,386.08c0.965,3.594,4.281,6.047,8,5.92h0.48
			c3.801-0.23,6.914-3.108,7.44-6.88l18-131.76L296,353.76c0.757,3.303,3.513,5.771,6.88,6.16c3.305,0.362,6.49-1.357,8-4.32
			l22.08-43.6H424v-16H328z"/>
	</g>
</g>
<g>
</g>
<g>
</g>
<g>
</g>
<g>
</g>
<g>
</g>
<g>
</g>
<g>
</g>
<g>
</g>
<g>
</g>
<g>
</g>
<g>
</g>
<g>
</g>
<g>
</g>
<g>
</g>
<g>
</g>
</svg>
